<svg width="40" height="40" viewBox="0 0 40 40" fill="none" xmlns="http://www.w3.org/2000/svg">
<path d="M25.5284 14.0597C24.8972 14.0597 24.3873 14.5698 24.3873 15.2014C24.3873 15.833 24.8972 16.3431 25.5284 16.3431C26.1596 16.3431 26.6694 15.833 26.6694 15.2014C26.6694 14.582 26.1596 14.0597 25.5284 14.0597Z" fill="#2FB7C6"/>
<path d="M20.4302 15.5293C17.7719 15.5293 15.6234 17.6913 15.6234 20.3391C15.6234 22.9991 17.784 25.1489 20.4302 25.1489C23.0885 25.1489 25.237 22.987 25.237 20.3391C25.2492 17.6913 23.0885 15.5293 20.4302 15.5293ZM20.4302 23.4364C18.7308 23.4364 17.3471 22.0517 17.3471 20.3513C17.3471 18.6509 18.7308 17.2662 20.4302 17.2662C22.1296 17.2662 23.5134 18.6509 23.5134 20.3513C23.5134 22.0517 22.1296 23.4364 20.4302 23.4364Z" fill="#2FB7C6"/>
<path d="M24.2538 30.1288H16.4488C13.2079 30.1288 10.5859 27.4931 10.5859 24.2623V16.4524C10.5859 13.2095 13.22 10.5859 16.4488 10.5859H24.2538C27.4948 10.5859 30.1288 13.2216 30.1288 16.4524V24.2623C30.1167 27.4931 27.4948 30.1288 24.2538 30.1288ZM16.4488 12.4078C14.2275 12.4078 12.4189 14.2176 12.4189 16.4403V24.2501C12.4189 26.4729 14.2275 28.2826 16.4488 28.2826H24.2538C26.4752 28.2826 28.2838 26.4729 28.2838 24.2501V16.4403C28.2838 14.2176 26.4752 12.4078 24.2538 12.4078H16.4488Z" fill="#2FB7C6"/>
<rect x="0.5" y="0.5" width="38.0857" height="38.0857" rx="3.5" stroke="#BCBCBC"/>
</svg>
